<svg preserveAspectRatio="none" overflow="visible" style="display: block;" width="279" height="16.5044" viewBox="0 0 279 16.5044" fill="none" xmlns="http://www.w3.org/2000/svg">
<g id="Group 2719">
<path id="Vector" d="M8.25233 16.5043C3.69467 16.5043 0 12.8096 0 8.25199C0 3.69433 3.69467 9.14311e-05 8.25233 9.14311e-05C12.81 9.14311e-05 16.5042 3.69476 16.5042 8.25199C16.5042 12.8092 12.8095 16.5043 8.25233 16.5043ZM8.63583 1.02878L7.86883 1.02878L7.86883 8.42028L8.63583 8.42028L8.63583 1.02878Z" fill="#C1C1C1"/>
<path id="Vector_2" d="M26.1327 15.3976C22.1863 13.1192 20.8342 8.073 23.1127 4.1266C25.3911 0.180198 30.4371 -1.17155 34.3834 1.1069C38.3298 3.38536 39.6816 8.43134 37.4033 12.3774C35.1251 16.3234 30.0787 17.6759 26.1327 15.3976ZM34.2012 2.18934L33.5371 1.80591L29.842 8.20609L30.5061 8.58953L34.2012 2.18934Z" fill="#C1C1C1"/>
<path id="Vector_3" d="M165.631 1.10667C169.577 3.38512 170.93 8.43132 168.651 12.3777C166.373 16.3241 161.327 17.6759 157.38 15.3974C153.434 13.119 152.082 8.07298 154.36 4.12695C156.639 0.180922 161.685 -1.17157 165.631 1.10667ZM157.562 14.315L158.227 14.6984L161.922 8.29822L161.258 7.91479L157.562 14.315Z" fill="#C1C1C1"/>
<path id="Vector_4" d="M45.1185 12.3778C42.8401 8.4314 44.1922 3.38521 48.1386 1.10675C52.085 -1.1717 57.1307 0.180636 59.4092 4.12704C61.6876 8.07344 60.3353 13.1193 56.3893 15.3975C52.4433 17.6757 47.3967 16.3238 45.1185 12.3778ZM58.7102 4.97336L58.3268 4.30923L51.9266 8.00438L52.31 8.66851L58.7102 4.97336Z" fill="#C1C1C1"/>
<path id="Vector_5" d="M190.657 4.12651C192.936 8.07291 191.583 13.1191 187.637 15.3976C183.691 17.676 178.645 16.3237 176.366 12.3773C174.088 8.43088 175.44 3.38506 179.386 1.10682C183.332 -1.17142 188.379 0.180486 190.657 4.12651ZM177.065 11.531L177.449 12.1951L183.849 8.49994L183.466 7.8358L177.065 11.531Z" fill="#C1C1C1"/>
<path id="Vector_6" d="M65.2305 8.25233C65.2305 3.69467 68.9251 3.14137e-08 73.4828 3.14137e-08C78.0405 3.14137e-08 81.7347 3.69467 81.7347 8.25233C81.7347 12.81 78.04 16.5042 73.4828 16.5042C68.9256 16.5042 65.2305 12.8096 65.2305 8.25233ZM80.706 8.63583V7.86883H73.3145V8.63583H80.706Z" fill="#C1C1C1"/>
<path id="Vector_7" d="M213.77 8.25207C213.77 12.8097 210.075 16.5044 205.517 16.5044C200.96 16.5044 197.265 12.8097 197.265 8.25207C197.265 3.69441 200.96 0.000168247 205.517 0.000168646C210.074 0.000169044 213.77 3.69484 213.77 8.25207ZM198.294 7.86857L198.294 8.63556L205.685 8.63556L205.685 7.86857L198.294 7.86857Z" fill="#C1C1C1"/>
<path id="Vector_8" d="M88.3427 4.12693C90.6211 0.180554 95.6673 -1.17156 99.6137 1.10688C103.56 3.38533 104.912 8.43128 102.633 12.3777C100.355 16.324 95.309 17.6758 91.363 15.3976C87.4169 13.1193 86.0645 8.07294 88.3427 4.12693ZM101.551 12.1955L101.934 11.5313L95.5342 7.83621L95.1508 8.50034L101.551 12.1955Z" fill="#C1C1C1"/>
<path id="Vector_9" d="M113.369 1.10688C117.315 -1.17156 122.361 0.180554 124.64 4.12693C126.918 8.07331 125.566 13.1191 121.619 15.3975C117.673 17.676 112.627 16.3237 110.349 12.3777C108.071 8.43165 109.423 3.38511 113.369 1.10688ZM120.773 14.6985L121.437 14.3151L117.742 7.91496L117.078 8.29839L120.773 14.6985Z" fill="#C1C1C1"/>
<path id="Vector_10" d="M139.5 7.89778e-05C144.058 7.91705e-05 147.752 3.69475 147.752 8.25241C147.752 12.8101 144.058 16.5043 139.5 16.5043C134.942 16.5043 131.248 12.8096 131.248 8.25241C131.248 3.69518 134.943 7.88151e-05 139.5 7.89778e-05ZM139.117 15.4756L139.884 15.4756L139.884 8.08411H139.117V15.4756Z" fill="#C1C1C1"/>
<path id="Vector_11" d="M270.748 16.5043C275.305 16.5043 279 12.8096 279 8.25199C279 3.69433 275.305 8.98468e-05 270.748 9.02452e-05C266.19 9.06436e-05 262.496 3.69476 262.496 8.25199C262.496 12.8092 266.19 16.5043 270.748 16.5043ZM270.364 1.02878L271.131 1.02878L271.131 8.42028L270.364 8.42028L270.364 1.02878Z" fill="#C1C1C1"/>
<path id="Vector_12" d="M233.882 12.3775C231.603 16.3239 226.557 17.676 222.611 15.3976C218.664 13.1191 217.313 8.07319 219.591 4.12681C221.869 0.180432 226.915 -1.17131 230.861 1.10692C234.807 3.38515 236.16 8.43153 233.882 12.3775ZM220.673 4.309L220.29 4.97313L226.69 8.66826L227.074 8.00414L220.673 4.309Z" fill="#C1C1C1"/>
<path id="Vector_13" d="M252.87 15.3976C248.923 17.676 243.877 16.3239 241.599 12.3775C239.32 8.43116 240.673 3.38537 244.619 1.10693C248.565 -1.17151 253.611 0.180817 255.889 4.12682C258.168 8.07283 256.816 13.1194 252.87 15.3976ZM245.465 1.80593L244.801 2.18936L248.496 8.58951L249.16 8.20608L245.465 1.80593Z" fill="#C1C1C1"/>
</g>
</svg>
